<svg width="8" height="12" viewBox="0 0 8 12" fill="none" xmlns="http://www.w3.org/2000/svg">
<path fill-rule="evenodd" clip-rule="evenodd" d="M0.277852 11.8245C0.535575 12.0585 0.952386 12.0585 1.20947 11.8245L6.65856 6.86636C6.78053 6.75707 6.87766 6.62553 6.94403 6.47974C7.01039 6.33395 7.04462 6.17695 7.04462 6.0183C7.04462 5.85965 7.01039 5.70266 6.94403 5.55687C6.87766 5.41108 6.78053 5.27954 6.65856 5.17024L1.17002 0.175496C1.04545 0.0638706 0.880497 0.00112943 0.708648 1.51006e-05C0.536799 -0.00109923 0.370942 0.0594968 0.244762 0.169497C0.182254 0.223818 0.13224 0.28966 0.0978158 0.362944C0.0633919 0.436229 0.0452914 0.515397 0.0446352 0.595544C0.043979 0.675692 0.0607811 0.755113 0.0940009 0.82889C0.127221 0.902667 0.176151 0.969229 0.237762 1.02445L5.26113 5.59442C5.32216 5.64907 5.37077 5.71486 5.40398 5.78778C5.4372 5.86071 5.45432 5.93924 5.45432 6.0186C5.45432 6.09796 5.4372 6.1765 5.40398 6.24942C5.37077 6.32234 5.32216 6.38813 5.26113 6.44278L0.277852 10.9768C0.216832 11.0313 0.168239 11.0971 0.135033 11.17C0.101827 11.2428 0.084702 11.3213 0.084702 11.4006C0.084702 11.4799 0.101827 11.5584 0.135033 11.6313C0.168239 11.7042 0.216832 11.7699 0.277852 11.8245Z" fill="white"/>
</svg>
