<svg width="101" height="100" viewBox="0 0 101 100" fill="none" xmlns="http://www.w3.org/2000/svg">
<rect x="0.5" width="100" height="100" rx="50" fill="#E1E1E1"/>
<path d="M51 74C64.5145 74 75.5 63.2387 75.5 50C75.5 36.7613 64.5145 26 51 26C37.4855 26 26.5 36.7613 26.5 50C26.5 63.2387 37.4855 74 51 74ZM54.3036 53.0348C53.8293 52.5703 53.1971 52.3226 52.5175 52.3226H49.4826C47.5384 52.3226 45.7049 51.5793 44.3455 50.2477C42.9861 48.9161 42.2275 47.12 42.2275 45.2154C42.2275 41.5768 45.041 38.6193 48.629 38.1858V37.1484C48.629 35.8632 49.688 34.8258 51 34.8258C52.312 34.8258 53.371 35.8632 53.371 37.1484V38.1084H57.4016C58.7136 38.1084 59.7726 39.1458 59.7726 40.431C59.7726 41.7161 58.7136 42.7536 57.4016 42.7536H49.4826C48.0916 42.7536 46.9694 43.8529 46.9694 45.2155C46.9694 45.8812 47.2222 46.5006 47.6964 46.9651C48.1707 47.4296 48.8029 47.6774 49.4825 47.6774H52.5175C54.4616 47.6774 56.2951 48.4206 57.6545 49.7522C59.0139 51.0839 59.7726 52.88 59.7726 54.7845C59.7726 58.4232 56.9591 61.3806 53.371 61.8142V62.8516C53.371 64.1368 52.312 65.1742 51 65.1742C49.688 65.1742 48.629 64.1368 48.629 62.8516V61.8916H44.5984C43.2864 61.8916 42.2274 60.8542 42.2274 59.569C42.2274 58.2838 43.2864 57.2464 44.5984 57.2464H52.5175C53.9084 57.2464 55.0306 56.147 55.0306 54.7845C55.0306 54.1187 54.7778 53.4994 54.3036 53.0348Z" fill="black"/>
</svg>
