<svg width="101" height="100" viewBox="0 0 101 100" fill="none" xmlns="http://www.w3.org/2000/svg">
<rect x="0.5" width="100" height="100" rx="50" fill="#E1E1E1"/>
<path d="M70.5455 59.2727H31.4545C30.9362 59.2727 30.439 59.4787 30.0725 59.8452C29.7059 60.2117 29.5 60.7089 29.5 61.2273C29.5 61.7457 29.7059 62.2428 30.0725 62.6093C30.439 62.9759 30.9362 63.1818 31.4545 63.1818H70.5455C71.0638 63.1818 71.561 62.9759 71.9275 62.6093C72.2941 62.2428 72.5 61.7457 72.5 61.2273C72.5 60.7089 72.2941 60.2117 71.9275 59.8452C71.561 59.4787 71.0638 59.2727 70.5455 59.2727ZM70.5455 67.0909H31.4545C30.9362 67.0909 30.439 67.2968 30.0725 67.6634C29.7059 68.0299 29.5 68.5271 29.5 69.0455C29.5 69.5638 29.7059 70.061 30.0725 70.4275C30.439 70.7941 30.9362 71 31.4545 71H70.5455C71.0638 71 71.561 70.7941 71.9275 70.4275C72.2941 70.061 72.5 69.5638 72.5 69.0455C72.5 68.5271 72.2941 68.0299 71.9275 67.6634C71.561 67.2968 71.0638 67.0909 70.5455 67.0909ZM39.2727 39.7273C38.8862 39.7273 38.5083 39.8419 38.1868 40.0567C37.8654 40.2714 37.6149 40.5767 37.467 40.9338C37.319 41.291 37.2803 41.684 37.3557 42.0631C37.4312 42.4423 37.6173 42.7905 37.8907 43.0639C38.164 43.3372 38.5123 43.5234 38.8914 43.5988C39.2706 43.6742 39.6636 43.6355 40.0207 43.4876C40.3778 43.3396 40.6831 43.0891 40.8979 42.7677C41.1126 42.4463 41.2273 42.0684 41.2273 41.6818C41.2273 41.1634 41.0213 40.6663 40.6548 40.2997C40.2883 39.9332 39.7911 39.7273 39.2727 39.7273ZM66.6364 28H35.3636C33.8085 28 32.3171 28.6178 31.2174 29.7174C30.1178 30.8171 29.5 32.3085 29.5 33.8636V49.5C29.5 51.0551 30.1178 52.5466 31.2174 53.6462C32.3171 54.7459 33.8085 55.3636 35.3636 55.3636H66.6364C68.1915 55.3636 69.6829 54.7459 70.7826 53.6462C71.8822 52.5466 72.5 51.0551 72.5 49.5V33.8636C72.5 32.3085 71.8822 30.8171 70.7826 29.7174C69.6829 28.6178 68.1915 28 66.6364 28ZM68.5909 49.5C68.5909 50.0184 68.385 50.5155 68.0184 50.8821C67.6519 51.2486 67.1547 51.4545 66.6364 51.4545H35.3636C34.8453 51.4545 34.3481 51.2486 33.9816 50.8821C33.615 50.5155 33.4091 50.0184 33.4091 49.5V33.8636C33.4091 33.3453 33.615 32.8481 33.9816 32.4816C34.3481 32.115 34.8453 31.9091 35.3636 31.9091H66.6364C67.1547 31.9091 67.6519 32.115 68.0184 32.4816C68.385 32.8481 68.5909 33.3453 68.5909 33.8636V49.5ZM51 35.8182C49.8403 35.8182 48.7066 36.1621 47.7423 36.8064C46.7781 37.4507 46.0265 38.3665 45.5827 39.4379C45.1389 40.5093 45.0228 41.6883 45.249 42.8258C45.4753 43.9632 46.0337 45.008 46.8538 45.828C47.6738 46.6481 48.7186 47.2065 49.8561 47.4328C50.9935 47.659 52.1725 47.5429 53.2439 47.0991C54.3154 46.6553 55.2311 45.9038 55.8754 44.9395C56.5197 43.9752 56.8636 42.8415 56.8636 41.6818C56.8636 40.1267 56.2459 38.6352 55.1462 37.5356C54.0466 36.436 52.5551 35.8182 51 35.8182ZM51 43.6364C50.6134 43.6364 50.2355 43.5217 49.9141 43.307C49.5927 43.0922 49.3422 42.7869 49.1942 42.4298C49.0463 42.0726 49.0076 41.6797 49.083 41.3005C49.1584 40.9214 49.3446 40.5731 49.6179 40.2997C49.8913 40.0264 50.2395 39.8402 50.6187 39.7648C50.9978 39.6894 51.3908 39.7281 51.748 39.8761C52.1051 40.024 52.4104 40.2745 52.6251 40.5959C52.8399 40.9174 52.9545 41.2952 52.9545 41.6818C52.9545 42.2002 52.7486 42.6973 52.3821 43.0639C52.0155 43.4304 51.5184 43.6364 51 43.6364ZM62.7273 39.7273C62.3407 39.7273 61.9628 39.8419 61.6414 40.0567C61.32 40.2714 61.0694 40.5767 60.9215 40.9338C60.7736 41.291 60.7349 41.684 60.8103 42.0631C60.8857 42.4423 61.0719 42.7905 61.3452 43.0639C61.6185 43.3372 61.9668 43.5234 62.346 43.5988C62.7251 43.6742 63.1181 43.6355 63.4752 43.4876C63.8324 43.3396 64.1377 43.0891 64.3524 42.7677C64.5672 42.4463 64.6818 42.0684 64.6818 41.6818C64.6818 41.1634 64.4759 40.6663 64.1093 40.2997C63.7428 39.9332 63.2457 39.7273 62.7273 39.7273Z" fill="black"/>
</svg>
