<svg width="101" height="100" viewBox="0 0 101 100" fill="none" xmlns="http://www.w3.org/2000/svg">
<rect x="0.5" width="100" height="100" rx="50" fill="#E1E1E1"/>
<path d="M74.1718 59.7417H73.2812C73.8423 59.0025 74.1718 58.0762 74.1718 57.0698V30.3511C74.1718 27.8929 72.1768 25.8979 69.7187 25.8979H39.4374C36.9793 25.8979 34.9843 27.8929 34.9843 30.3511V57.0698C34.9843 58.0762 35.3138 59.0025 35.8749 59.7417H27.8593C23.1504 59.8859 23.151 66.723 27.8594 66.8667C27.8593 66.8667 32.6776 66.8667 32.6776 66.8667C31.3857 69.7056 33.6164 73.1723 36.7656 73.101C39.9141 73.1724 42.1463 69.7052 40.8536 66.8667H61.1776C59.8857 69.7056 62.1164 73.1723 65.2656 73.101C68.4141 73.1724 70.6463 69.7052 69.3536 66.8667H74.1718C78.8811 66.7226 78.8797 59.885 74.1718 59.7417ZM36.7656 30.3511C36.7656 28.8815 37.9679 27.6792 39.4374 27.6792H48.3437V30.3511C48.3437 31.8206 49.5461 33.0229 51.0156 33.0229H58.1406C59.6101 33.0229 60.8124 31.8206 60.8124 30.3511V27.6792H69.7187C71.1882 27.6792 72.3906 28.8815 72.3906 30.3511V57.0698C72.3906 58.5393 71.1882 59.7417 69.7187 59.7417H39.4374C37.9679 59.7417 36.7656 58.5393 36.7656 57.0698V30.3511ZM74.1718 65.0854H67.9374C66.4883 63.9117 64.0429 63.9118 62.5937 65.0854H39.4374C37.9883 63.9117 35.5429 63.9118 34.0937 65.0854H27.8593C26.8796 65.0854 26.0781 64.2839 26.0781 63.3042C26.0781 62.3245 26.8796 61.5229 27.8593 61.5229H74.1718C76.502 61.5811 76.5345 65.0179 74.1718 65.0854Z" fill="black"/>
<path d="M33.203 41.0387C34.3724 41.0195 34.3747 39.277 33.203 39.2574H28.7499C28.258 39.2574 27.8593 39.6558 27.8593 40.148C27.8593 40.6403 28.258 41.0387 28.7499 41.0387H33.203ZM24.2968 45.4918C24.2968 45.9841 24.6955 46.3824 25.1874 46.3824H33.203C33.6949 46.3824 34.0936 45.9841 34.0936 45.4918C34.0936 44.9995 33.6949 44.6012 33.203 44.6012H25.1874C24.6955 44.6012 24.2968 44.9995 24.2968 45.4918ZM28.7499 49.9449C27.5805 49.9641 27.5783 51.7066 28.7499 51.7262C28.7499 51.7262 33.203 51.7262 33.203 51.7262C34.3724 51.707 34.3747 49.9645 33.203 49.9449H28.7499ZM57.5924 48.2664C57.5924 49.5916 56.6065 50.6812 55.3316 50.8659V51.6576C55.3316 52.0742 54.9942 52.4113 54.578 52.4113C54.1618 52.4113 53.8244 52.0742 53.8244 51.6576V50.904H53.0708C52.0858 50.8996 52.0849 49.4011 53.0708 49.3968C53.0708 49.3968 54.9548 49.3968 54.9548 49.3968C56.4816 49.3622 56.4173 47.0877 54.8901 47.136L49.2773 52.7488C57.1378 59.0044 67.1976 48.9344 60.9444 41.0817L56.1159 45.9101C56.9868 46.3414 57.5924 47.2308 57.5924 48.2664ZM53.0401 46.8547C50.7388 45.7661 51.2901 42.2331 53.8244 41.8989V41.1072C53.8244 40.6906 54.1618 40.3536 54.578 40.3536C54.9942 40.3536 55.3316 40.6906 55.3316 41.1072V41.8607H56.0852C57.0702 41.8652 57.0712 43.3637 56.0852 43.368C56.0852 43.368 54.2012 43.368 54.2012 43.368C52.6744 43.4025 52.7387 45.677 54.266 45.6288L59.8787 40.0161C52.0184 33.7604 41.9585 43.8302 48.2116 51.6831L53.0401 46.8547Z" fill="black"/>
<path d="M54.578 57.9603C60.9724 57.9603 66.1561 52.7766 66.1561 46.3822C65.5463 31.024 43.6075 31.0284 42.9999 46.3823C42.9999 52.7766 48.1836 57.9603 54.578 57.9603ZM54.578 36.5853C59.9767 36.589 64.3711 40.9836 64.3749 46.3822C64.3916 55.1535 53.559 59.4618 47.5655 53.2091C41.5574 47.1319 45.9424 36.5633 54.578 36.5853Z" fill="black"/>
</svg>
