<svg width="16" height="19" viewBox="0 0 16 19" fill="none" xmlns="http://www.w3.org/2000/svg">
<path d="M4.79822 15.2C3.91854 15.2 3.20681 16.055 3.20681 17.1C3.20681 18.145 3.91854 19 4.79822 19C5.67789 19 6.39762 18.145 6.39762 17.1C6.39762 16.055 5.67789 15.2 4.79822 15.2ZM0 0.95C0 1.4725 0.359866 1.9 0.799703 1.9H1.59941L4.47834 9.1105L3.39874 11.4285C2.81495 12.7015 3.58267 14.25 4.79822 14.25H13.595C14.0348 14.25 14.3947 13.8225 14.3947 13.3C14.3947 12.7775 14.0348 12.35 13.595 12.35H4.79822L5.67789 10.45H11.6357C12.2355 10.45 12.7633 10.0605 13.0352 9.4715L15.8981 3.306C16.194 2.679 15.8101 1.9 15.2024 1.9H3.36675L2.83095 0.5415C2.703 0.209 2.4151 0 2.11122 0H0.799703C0.359866 0 0 0.4275 0 0.95ZM12.7952 15.2C11.9156 15.2 11.2038 16.055 11.2038 17.1C11.2038 18.145 11.9156 19 12.7952 19C13.6749 19 14.3947 18.145 14.3947 17.1C14.3947 16.055 13.6749 15.2 12.7952 15.2Z" fill="black"/>
</svg>
