<svg width="100" height="100" viewBox="0 0 33 33" fill="none" xmlns="http://www.w3.org/2000/svg">
<circle cx="16.5" cy="16.5" r="16.5" fill="#050505"/>
<path d="M23.7793 13.0988C23.6455 12.8669 23.4538 12.6737 23.223 12.5379C22.9922 12.4022 22.7302 12.3286 22.4625 12.3242H12.5477L12.0984 10.5737C12.053 10.4047 11.9517 10.256 11.8111 10.1519C11.6704 10.0479 11.4987 9.99446 11.3238 10.0005H9.7746C9.56916 10.0005 9.37214 10.0821 9.22687 10.2273C9.08161 10.3726 9 10.5696 9 10.7751C9 10.9805 9.08161 11.1775 9.22687 11.3228C9.37214 11.468 9.56916 11.5496 9.7746 11.5496H10.7351L12.873 19.497C12.9184 19.666 13.0196 19.8146 13.1603 19.9187C13.301 20.0228 13.4727 20.0762 13.6476 20.0702H20.619C20.762 20.0698 20.9021 20.0297 21.0238 19.9546C21.1455 19.8794 21.244 19.7719 21.3083 19.6442L23.849 14.5628C23.9591 14.332 24.0104 14.0775 23.9982 13.8221C23.9861 13.5666 23.9109 13.3182 23.7793 13.0988ZM20.1387 18.521H14.2363L12.9737 13.8734H22.4625L20.1387 18.521Z" fill="white"/>
<path d="M13.2603 23.9432C13.902 23.9432 14.4222 23.423 14.4222 22.7813C14.4222 22.1396 13.902 21.6194 13.2603 21.6194C12.6186 21.6194 12.0984 22.1396 12.0984 22.7813C12.0984 23.423 12.6186 23.9432 13.2603 23.9432Z" fill="white"/>
<path d="M21.0061 23.9432C21.6478 23.9432 22.168 23.423 22.168 22.7813C22.168 22.1396 21.6478 21.6194 21.0061 21.6194C20.3644 21.6194 19.8442 22.1396 19.8442 22.7813C19.8442 23.423 20.3644 23.9432 21.0061 23.9432Z" fill="white"/>
</svg>