<svg width="79" height="15" viewBox="0 0 79 15" fill="none" xmlns="http://www.w3.org/2000/svg">
<path d="M7.58146 11.713V8.13132C7.58146 7.52431 7.95036 7.2208 8.68815 7.2208C9.41327 7.2208 9.77582 7.51154 9.77582 8.09302V11.8618C9.77582 12.8646 9.44401 13.6136 8.78038 14.1086C8.46028 14.3434 8.13139 14.5256 7.79372 14.6552C7.45508 14.7859 7.1257 14.8512 6.8056 14.8512H2.97022C2.65012 14.8512 2.32123 14.7859 1.98356 14.6552C1.64492 14.5256 1.31554 14.3434 0.995442 14.1086C0.676315 13.8611 0.430382 13.5547 0.257644 13.1893C0.0858812 12.8239 0 12.3814 0 11.8618V3.04391C0 2.53708 0.0892969 2.09803 0.267891 1.72675C0.445509 1.35547 0.688026 1.05196 0.995442 0.816226H0.977875C1.297 0.606031 1.62882 0.432669 1.97332 0.29614C2.31782 0.160593 2.65012 0.09282 2.97022 0.09282H6.62115C6.94125 0.09282 7.27355 0.160593 7.61806 0.29614C7.96256 0.432669 8.29437 0.606031 8.6135 0.816226H8.59593C9.24687 1.29948 9.57234 2.04204 9.57234 3.04391V4.3257C9.57234 4.91897 9.20979 5.2156 8.48467 5.2156C7.75956 5.2156 7.39701 4.91897 7.39701 4.3257V3.21186C7.39701 2.90247 7.30478 2.61762 7.12033 2.35733C6.93588 2.09704 6.61578 1.9669 6.16003 1.9669H3.44891C2.98144 1.9669 2.65549 2.09704 2.47104 2.35733C2.28659 2.61762 2.19436 2.90247 2.19436 3.21186V11.713C2.19436 11.8741 2.21632 12.0288 2.26024 12.1771C2.30318 12.3264 2.37344 12.4595 2.47104 12.5764C2.56961 12.6942 2.69892 12.7905 2.85897 12.8651C3.01902 12.9388 3.21567 12.9756 3.44891 12.9756H6.34448C6.80023 12.9756 7.12033 12.846 7.30478 12.5867C7.48923 12.3264 7.58146 12.0352 7.58146 11.713ZM6.71337 7.92653C6.71337 8.13673 6.67385 8.33759 6.5948 8.52912C6.51477 8.72164 6.40401 8.88567 6.2625 9.02122C6.12099 9.15774 5.95801 9.26628 5.77356 9.34682C5.58911 9.42736 5.38612 9.46764 5.16458 9.46764C4.74689 9.46764 4.39019 9.31883 4.09448 9.02122C3.79976 8.72458 3.65239 8.35969 3.65239 7.92653C3.65239 7.50614 3.79976 7.14714 4.09448 6.84952C4.39019 6.55289 4.74689 6.40458 5.16458 6.40458C5.38612 6.40458 5.58911 6.44485 5.77356 6.52539C5.95801 6.60593 6.12099 6.71398 6.2625 6.84952C6.40401 6.98605 6.51477 7.14714 6.5948 7.33278C6.67385 7.51842 6.71337 7.71633 6.71337 7.92653ZM21.525 14.3871L17.4671 1.91239L13.4282 14.3871V14.3679C13.354 14.5536 13.2525 14.7053 13.1237 14.8232C12.9949 14.9411 12.8383 15 12.6538 15C12.5553 15 12.4596 14.9907 12.3669 14.972C12.2752 14.9533 12.18 14.9317 12.0814 14.9072H12.1005C11.3988 14.6842 11.1402 14.2879 11.3246 13.7182L15.5304 0.85306C15.5918 0.655633 15.6997 0.488655 15.8539 0.352126C16.0071 0.21658 16.1881 0.136038 16.397 0.1105C16.6068 0.0741577 16.8098 0.0466555 17.0059 0.0279933C17.2031 0.0093311 17.3568 0 17.4671 0C17.5783 0 17.732 0.0093311 17.9282 0.0279933C18.1253 0.0466555 18.3283 0.0682644 18.5372 0.09282C18.7089 0.117376 18.8783 0.210195 19.0451 0.37128C19.211 0.532364 19.3369 0.692957 19.4228 0.85306C20.1108 2.98252 20.8086 5.12671 21.5162 7.28563C22.2227 9.44554 22.9205 11.5897 23.6095 13.7182C23.7813 14.2879 23.5232 14.6842 22.8351 14.9072C22.7366 14.9317 22.6473 14.9533 22.5672 14.972C22.4872 14.9907 22.3979 15 22.2994 15C22.1276 15 21.971 14.9411 21.8294 14.8232C21.6879 14.7053 21.5864 14.5536 21.525 14.3679V14.3871ZM18.8504 10.3767C18.8504 10.7725 18.7123 11.1099 18.4362 11.3889C18.159 11.6668 17.8238 11.8058 17.4305 11.8058C17.0372 11.8058 16.7054 11.6668 16.435 11.3889C16.1637 11.1099 16.0281 10.7725 16.0281 10.3767C16.0281 9.98085 16.1637 9.64345 16.435 9.3645C16.7054 9.08653 17.0372 8.94755 17.4305 8.94755C17.8238 8.94755 18.159 9.08653 18.4362 9.3645C18.7123 9.64345 18.8504 9.98085 18.8504 10.3767ZM29.2718 12.9756H31.7809C32.2357 12.9756 32.5553 12.846 32.7398 12.5867C32.9242 12.3264 33.0165 12.0352 33.0165 11.713V3.21186C33.0165 2.90247 32.9242 2.61762 32.7398 2.35733C32.5553 2.09704 32.2357 1.9669 31.7809 1.9669H27.4639L27.4464 14.0718C27.4464 14.3439 27.3419 14.5605 27.1331 14.7215C26.9233 14.8816 26.6647 14.9617 26.3572 14.9617C25.6321 14.9617 25.2696 14.6651 25.2696 14.0718V1.20666C25.2696 0.760731 25.3833 0.463609 25.6107 0.315293C25.8381 0.166978 26.1118 0.09282 26.4319 0.09282H32.2421C32.5612 0.09282 32.893 0.160593 33.2375 0.29614C33.582 0.432669 33.9143 0.606031 34.2344 0.816226H34.2154C34.5355 1.05196 34.7814 1.35841 34.9532 1.73559C35.1249 2.11276 35.2108 2.54887 35.2108 3.04391V11.8618C35.2108 12.8646 34.879 13.6136 34.2154 14.1086C33.8953 14.3434 33.5664 14.5256 33.2287 14.6552C32.8901 14.7859 32.5612 14.8512 32.2421 14.8512H29.143C28.9342 14.8512 28.7712 14.7643 28.6541 14.5904C28.537 14.4175 28.4784 14.1887 28.4784 13.9038C28.4784 13.285 28.7429 12.9756 29.2718 12.9756ZM44.9866 0.891366V11.8618C44.9866 12.8646 44.6548 13.6136 43.9912 14.1086C43.6711 14.3434 43.3422 14.5256 43.0045 14.6552C42.6659 14.7859 42.337 14.8512 42.0179 14.8512H40.2466C39.9275 14.8512 39.5986 14.7859 39.2599 14.6552C38.9222 14.5256 38.5934 14.3434 38.2733 14.1086C37.6213 13.6254 37.2954 12.8764 37.2954 11.8618V10.6375C37.2954 10.055 37.6521 9.76378 38.3655 9.76378C39.1033 9.76378 39.4722 10.055 39.4722 10.6375V11.713C39.4722 12.0352 39.5644 12.3264 39.7489 12.5867C39.9333 12.846 40.2529 12.9756 40.7077 12.9756H41.5568C42.0115 12.9756 42.3312 12.846 42.5156 12.5867C42.7 12.3264 42.7923 12.0352 42.7923 11.713V0.891366C42.7923 0.297122 43.1548 0 43.8799 0C44.6177 0 44.9866 0.297122 44.9866 0.891366ZM55.8882 14.8512H49.1367C48.682 14.8512 48.3745 14.7333 48.2145 14.4976C48.0554 14.2628 47.9759 14.003 47.9759 13.7182V1.20666C47.9759 0.921815 48.0554 0.664964 48.2145 0.436106C48.3745 0.207249 48.682 0.09282 49.1367 0.09282H55.5559C56.0107 0.09282 56.2507 0.40222 56.2761 1.02102C56.3005 1.65161 56.0604 1.9669 55.5559 1.9669H50.1512V12.9756H55.8882C56.343 12.9756 56.5767 13.2791 56.5894 13.8862C56.6138 14.5295 56.3801 14.8512 55.8882 14.8512ZM54.8737 7.16482C54.8737 7.59798 54.7229 7.96336 54.4214 8.26098C54.1208 8.55761 53.7553 8.70592 53.3249 8.70592C52.9062 8.70592 52.5495 8.55761 52.2548 8.26098C51.9591 7.96336 51.8113 7.59798 51.8113 7.16482C51.8113 6.73166 51.9591 6.36676 52.2548 6.07013C52.5495 5.7735 52.9062 5.62518 53.3249 5.62518C53.7553 5.62518 54.1208 5.7735 54.4214 6.07013C54.7229 6.36676 54.8737 6.73166 54.8737 7.16482ZM63.5062 1.96837V14.091C63.5062 14.6852 63.1373 14.9823 62.3995 14.9823C61.6735 14.9823 61.3104 14.6852 61.3104 14.091V1.96837H58.0825C57.6405 1.96837 57.4072 1.65308 57.3828 1.02249C57.3828 0.403693 57.6161 0.0942933 58.0825 0.0942933H66.7341C67.2016 0.0942933 67.4226 0.403693 67.3972 1.02249C67.3972 1.65308 67.1762 1.96837 66.7341 1.96837H63.5062ZM72.4696 6.34859H76.0298C76.3499 6.34859 76.6822 6.41685 77.0267 6.55338C77.3702 6.68893 77.702 6.86819 78.0221 7.09115H78.0031C78.3232 7.31411 78.5691 7.61713 78.7409 8.0002C78.9136 8.38424 79 8.82379 79 9.31883V11.8618C79 12.8646 78.6677 13.6136 78.0031 14.1086C77.684 14.3434 77.3551 14.5256 77.0164 14.6552C76.6788 14.7859 76.3499 14.8512 76.0298 14.8512H72.0085C71.6894 14.8512 71.3605 14.7859 71.0218 14.6552C70.6842 14.5256 70.3553 14.3434 70.0352 14.1086C69.3715 13.6136 69.0397 12.8646 69.0397 11.8618V10.6375C69.0397 10.055 69.4023 9.76378 70.1274 9.76378C70.8652 9.76378 71.2341 10.055 71.2341 10.6375V11.713C71.2341 12.0352 71.3263 12.3264 71.5108 12.5867C71.6952 12.846 72.0148 12.9756 72.4696 12.9756H75.5687C76.0234 12.9756 76.343 12.846 76.5275 12.5867C76.7119 12.3264 76.8042 12.0352 76.8042 11.713V9.46764C76.8042 9.15824 76.7119 8.87045 76.5275 8.60426C76.343 8.33808 76.0234 8.20499 75.5687 8.20499H72.0085C71.3692 8.20499 70.7115 7.96975 70.0352 7.49926C69.3715 6.97967 69.0397 6.23122 69.0397 5.2539V3.04391C69.0397 2.54887 69.1256 2.11276 69.2974 1.73559C69.4701 1.35841 69.716 1.05196 70.0352 0.816226H70.0176C70.3367 0.606031 70.6685 0.432669 71.013 0.29614C71.3575 0.160593 71.6894 0.09282 72.0085 0.09282H76.0298C76.3499 0.09282 76.6822 0.160593 77.0267 0.29614C77.3702 0.432669 77.702 0.606031 78.0221 0.816226H78.0031C78.3232 1.05196 78.5691 1.35841 78.7409 1.73559C78.9136 2.11276 79 2.54887 79 3.04391V4.14006C79 4.72154 78.6311 5.01228 77.8933 5.01228C77.1672 5.01228 76.8042 4.72154 76.8042 4.14006V3.21186C76.8042 2.90247 76.7119 2.61762 76.5275 2.35733C76.343 2.09704 76.0234 1.9669 75.5687 1.9669H72.4696C72.0148 1.9669 71.6952 2.09704 71.5108 2.35733C71.3263 2.61762 71.2341 2.90247 71.2341 3.21186V5.1051C71.2341 5.42628 71.3263 5.71408 71.5108 5.96847C71.6952 6.22188 72.0148 6.34859 72.4696 6.34859Z" fill="black"/>
</svg>
