<svg xmlns="http://www.w3.org/2000/svg" version="1.1" xmlns:xlink="http://www.w3.org/1999/xlink" width="2000" height="105" viewBox="0 0 2000 105"><svg xml:space="preserve" width="2000" height="105" data-version="2" data-id="lg_mzM1uGagZevhi5qblm" viewBox="0 0 552 105" x="0" y="0"><rect width="100%" height="100%" fill="transparent"></rect><path fill="#000000" d="M57.96 81.09V56.78q0-6.18 7.56-6.18 7.43 0 7.43 5.92V82.1q0 10.21-6.8 15.25-3.28 2.39-6.74 3.71-3.47 1.33-6.75 1.33h-26.2q-3.28 0-6.74-1.33-3.47-1.32-6.75-3.71-3.27-2.52-5.04-6.24-1.76-3.72-1.76-9.01V22.25q0-5.16 1.83-8.94 1.82-3.78 4.97-6.18h-.12q3.27-2.14 6.8-3.53 3.53-1.38 6.81-1.38H51.4q3.28 0 6.81 1.38 3.53 1.39 6.8 3.53h-.12q6.67 4.92 6.67 15.12v8.7q0 6.04-7.43 6.04t-7.43-6.04v-7.56q0-3.15-1.89-5.8t-6.56-2.65H29.73q-4.79 0-6.68 2.65t-1.89 5.8v57.7q0 1.64.45 3.15.44 1.52 1.44 2.71 1.01 1.2 2.65 1.96 1.64.75 4.03.75h19.78q4.67 0 6.56-2.64 1.89-2.65 1.89-5.93m-5.93-25.7q0 2.14-.81 4.09-.82 1.96-2.27 3.34-1.45 1.39-3.34 2.21t-4.16.82q-4.28 0-7.31-3.03-3.02-3.02-3.02-7.43 0-4.28 3.02-7.31 3.03-3.02 7.31-3.02 2.27 0 4.16.82t3.34 2.2q1.45 1.39 2.27 3.28.81 1.89.81 4.03m101.18 43.85-27.72-84.67L97.9 99.24v-.13q-.76 1.89-2.08 3.09t-3.21 1.2q-1.01 0-1.96-.19-.94-.19-1.95-.44h.13q-7.19-2.27-5.3-8.07l28.73-87.32q.63-2.01 2.21-3.4 1.57-1.38 3.71-1.64 2.15-.37 4.16-.56 2.02-.19 3.15-.19 1.14 0 3.15.19 2.02.19 4.16.44 1.76.25 3.47 1.89 1.7 1.64 2.58 3.27 7.05 21.68 14.3 43.66 7.24 21.99 14.3 43.66 1.76 5.8-5.29 8.07-1.01.25-1.83.44t-1.83.19q-1.76 0-3.21-1.2t-2.08-3.09zm-18.27-27.22q0 4.03-2.83 6.87-2.84 2.83-6.87 2.83t-6.8-2.83q-2.78-2.84-2.78-6.87t2.78-6.87q2.77-2.83 6.8-2.83t6.87 2.83q2.83 2.84 2.83 6.87m71.19 17.64h17.14q4.66 0 6.55-2.64 1.89-2.65 1.89-5.93v-57.7q0-3.15-1.89-5.8t-6.55-2.65h-29.49l-.12 82.16q0 2.77-2.14 4.41-2.15 1.63-5.3 1.63-7.43 0-7.43-6.04V9.78q0-4.54 2.33-6.05t5.61-1.51h39.69q3.27 0 6.8 1.38 3.53 1.39 6.81 3.53h-.13q3.28 2.4 5.04 6.24t1.76 8.88V82.1q0 10.21-6.8 15.25-3.28 2.39-6.74 3.71-3.47 1.33-6.74 1.33h-21.17q-2.14 0-3.34-1.77-1.2-1.76-1.2-4.66 0-6.3 5.42-6.3M313.48 7.64V82.1q0 10.21-6.8 15.25-3.28 2.39-6.74 3.71-3.47 1.33-6.74 1.33h-12.1q-3.27 0-6.74-1.33-3.46-1.32-6.74-3.71-6.68-4.92-6.68-15.25v-8.31q0-5.93 7.31-5.93 7.56 0 7.56 5.93v7.3q0 3.28 1.89 5.93 1.89 2.64 6.55 2.64h5.8q4.66 0 6.55-2.64 1.89-2.65 1.89-5.93V7.64q0-6.05 7.43-6.05 7.56 0 7.56 6.05m74.47 94.75h-46.12q-4.66 0-6.3-2.4-1.63-2.39-1.63-5.29V9.78q0-2.9 1.63-5.23 1.64-2.33 6.3-2.33h43.85q4.66 0 4.92 6.3.25 6.42-4.92 6.42h-36.92v74.72h39.19q4.66 0 4.79 6.18.25 6.55-4.79 6.55m-6.93-52.17q0 4.41-3.09 7.44-3.08 3.02-7.49 3.02-4.29 0-7.31-3.02-3.03-3.03-3.03-7.44t3.03-7.43q3.02-3.02 7.31-3.02 4.41 0 7.49 3.02 3.09 3.02 3.09 7.43m58.97-35.27v82.28q0 6.05-7.56 6.05-7.44 0-7.44-6.05V14.95h-22.05q-4.53 0-4.78-6.42 0-6.3 4.78-6.3h59.1q4.79 0 4.53 6.3 0 6.42-4.53 6.42zm61.23 29.73h24.32q3.28 0 6.81 1.39 3.52 1.38 6.8 3.65h-.13q3.28 2.27 5.04 6.17 1.77 3.91 1.77 8.95V82.1q0 10.21-6.81 15.25-3.27 2.39-6.74 3.71-3.46 1.33-6.74 1.33h-27.47q-3.27 0-6.74-1.33-3.46-1.32-6.74-3.71-6.8-5.04-6.8-15.25v-8.31q0-5.93 7.43-5.93 7.56 0 7.56 5.93v7.3q0 3.28 1.89 5.93 1.89 2.64 6.55 2.64h21.17q4.66 0 6.55-2.64 1.89-2.65 1.89-5.93V65.85q0-3.15-1.89-5.86t-6.55-2.71h-24.32q-6.55 0-13.48-4.79-6.8-5.29-6.8-15.24v-15q0-5.04 1.76-8.88 1.77-3.84 5.04-6.24h-.12q3.27-2.14 6.8-3.53 3.53-1.38 6.8-1.38h27.47q3.28 0 6.81 1.38 3.52 1.39 6.8 3.53h-.13q3.28 2.4 5.04 6.24 1.77 3.84 1.77 8.88v7.44q0 5.92-7.56 5.92-7.44 0-7.44-5.92v-6.3q0-3.15-1.89-5.8t-6.55-2.65h-21.17q-4.66 0-6.55 2.65t-1.89 5.8v12.85q0 3.27 1.89 5.86 1.89 2.58 6.55 2.58"></path></svg></svg>